<svg enable-background="new 0 0 828 36" height="36" viewBox="0 0 828 36" width="828" xmlns="http://www.w3.org/2000/svg"><path d="m576 0h36v36h-36z" fill="none"/><path d="m597.5 11c-1.3 0-2.3.4-3.2 1.3l-.3.3-.3-.3c-.9-.9-1.9-1.3-3.2-1.3s-2.3.4-3.2 1.3-1.3 1.9-1.3 3.2.4 2.3 1.3 3.2l6 6.1c.2.2.4.3.7.3s.6-.1.7-.3l6-6.1c.9-.9 1.3-1.9 1.3-3.2s-.4-2.3-1.3-3.2c-.7-.8-1.9-1.3-3.2-1.3z" fill="#ee3633"/><path d="m612 0h36v36h-36z" fill="none"/><path d="m633.3 11.4c-1.2 0-2.2.4-3 1.2l-.3.3-.3-.3c-.8-.8-1.8-1.2-3-1.2s-2.2.4-3 1.2-1.2 1.8-1.2 3 .4 2.2 1.2 3l5.6 5.7c.1.1.4.3.7.3s.5-.1.7-.3l5.6-5.7c.8-.8 1.2-1.8 1.2-3s-.4-2.2-1.2-3c-.7-.8-1.8-1.2-3-1.2z" fill="#ee3633"/><path d="m648 0h36v36h-36z" fill="none"/><path d="m669.1 11.9c-1.1 0-2 .4-2.8 1.2l-.2.3-.3-.3c-.8-.8-1.7-1.2-2.8-1.2s-2 .4-2.8 1.2-1.2 1.7-1.2 2.8.4 2 1.2 2.8l5.2 5.3c.1.1.4.2.6.2s.5-.1.6-.2l5.2-5.3c.8-.8 1.2-1.7 1.2-2.8s-.4-2-1.2-2.8c-.6-.9-1.6-1.2-2.7-1.2z" fill="#ee3633"/><path d="m684 0h36v36h-36z" fill="none"/><path d="m705.3 11.4c-1.2 0-2.2.4-3 1.2l-.3.3-.3-.3c-.8-.8-1.8-1.2-3-1.2s-2.2.4-3 1.2-1.2 1.8-1.2 3 .4 2.2 1.2 3l5.6 5.7c.1.1.4.3.7.3s.5-.1.7-.3l5.6-5.7c.8-.8 1.2-1.8 1.2-3s-.4-2.2-1.2-3c-.7-.8-1.8-1.2-3-1.2z" fill="#ee3633"/><path d="m720 0h36v36h-36z" fill="none"/><path d="m741.3 11.4c-1.2 0-2.2.4-3 1.2l-.3.3-.3-.3c-.8-.8-1.8-1.2-3-1.2s-2.2.4-3 1.2-1.2 1.8-1.2 3 .4 2.2 1.2 3l5.6 5.7c.2.2.4.3.7.3s.5-.1.7-.3l5.6-5.7c.8-.8 1.2-1.8 1.2-3s-.4-2.2-1.2-3c-.7-.7-1.8-1.2-3-1.2z" fill="#ee3633"/><path d="m756 0h36v36h-36z" fill="none"/><path d="m777.2 11.9c-1.1 0-2 .4-2.8 1.1l-.3.3-.3-.3c-.8-.8-1.7-1.1-2.8-1.1s-2 .4-2.8 1.1c-.8.8-1.1 1.7-1.1 2.8s.4 2 1.1 2.8l5.2 5.3c.1.1.4.3.6.3s.4-.1.6-.3l5.2-5.3c.8-.8 1.1-1.7 1.1-2.8s-.4-2-1.1-2.8c-.5-.6-1.5-1.1-2.6-1.1z" fill="#ee3633"/><path d="m792 0h36v36h-36z" fill="#c2fffa" opacity=".01"/><path d="m813.3 11.4c-1.2 0-2.2.4-3 1.2l-.3.3-.3-.3c-.8-.8-1.8-1.2-3-1.2s-2.2.4-3 1.2-1.2 1.8-1.2 3 .4 2.2 1.2 3l5.6 5.7c.2.2.4.3.7.3s.5-.1.7-.3l5.6-5.7c.8-.8 1.2-1.8 1.2-3s-.4-2.2-1.2-3c-.7-.7-1.8-1.2-3-1.2z" fill="#ee3633"/><path d="m432 0h36v36h-36z" fill="none"/><g fill="#ed7d4a" opacity=".4"><path d="m464.1 20.4c-.3-.5-.8-.8-1.3-.9-1.1-.2-2.1.4-2.3 1.5-.2 1 .3 2 1.3 2.4.1 0 .2 0 .3.1.4.1.9 0 1.3-.2.5-.3.9-.7 1-1.3s0-1.2-.3-1.6z"/><path d="m458 28.2c-.6-.9-1.8-1.2-2.7-.6-.9.5-1.2 1.7-.8 2.6.2.4.7.8 1.2 1.1h.2c.5.1 1 0 1.5-.2.5-.3.9-.7 1-1.3 0-.7-.1-1.2-.4-1.6z"/><path d="m446.9 28.6c-1-.2-2 .3-2.4 1.3-.2.5-.1 1.1.1 1.5.3.5.7.9 1.3 1h.1c.5.1 1.1 0 1.5-.3.5-.3.8-.8.9-1.3.2-.9-.4-2-1.5-2.2z"/><path d="m440.3 23.4c-.5-.9-1.7-1.2-2.6-.8-.4.2-.8.7-1.1 1.2-.2.6-.1 1.1.2 1.7.3.5.7.9 1.3 1 .5.1 1 0 1.5-.3 1-.7 1.2-1.9.7-2.8z"/><path d="m438 12.6c-.5-.2-1.1-.1-1.5.1-.5.3-.9.7-1 1.3s0 1.2.3 1.7.7.7 1.3.9c1.1.2 2.1-.4 2.3-1.5s-.4-2.1-1.4-2.5z"/><path d="m445.3 5.8c-.2-.4-.7-.8-1.2-1.1-.6-.2-1.1-.1-1.7.2-.5.3-.9.7-1 1.3-.1.5 0 1 .3 1.5s.8.8 1.4.9c.5.1.9 0 1.4-.2 1-.5 1.3-1.6.8-2.6z"/><path d="m455.2 4.6c-.3-.5-.7-.9-1.3-1s-1.2 0-1.7.3c-.4.2-.6.7-.7 1.2-.2 1.1.4 2.1 1.5 2.3h.1c1 .2 2-.3 2.3-1.3.1-.5.1-1.1-.2-1.5z"/><path d="m463 10.6c-.3-.5-.7-.9-1.3-1-.5-.1-1 0-1.5.3-.9.6-1.2 1.8-.6 2.7.3.6.8.9 1.3 1 .4.1.8.1 1.3-.2.4-.2.8-.7 1.1-1.2 0-.5 0-1.1-.3-1.6z"/></g><path d="m452 14.1c-.7 0-1.3.2-1.8.8l-.2.2-.2-.2c-.5-.5-1.1-.8-1.8-.8s-1.3.2-1.8.8-.8 1.1-.8 1.8.2 1.3.8 1.8l3.4 3.4c.1.1.2.1.4.1s.3 0 .4-.1l3.4-3.4c.5-.5.8-1.1.8-1.8s-.2-1.3-.8-1.8c-.4-.5-1.1-.8-1.8-.8z" fill="#ee3633"/><path d="m0 0h36v36h-36z" fill="#c2fffa" opacity=".01"/><path d="m21.3 11.4c-1.2 0-2.2.4-3 1.2l-.3.3-.3-.2c-.8-.8-1.8-1.2-3-1.2s-2.2.4-3 1.2-1.2 1.8-1.2 3 .4 2.2 1.2 3l5.6 5.7c.2.2.4.3.7.3s.5-.1.7-.3l5.6-5.7c.8-.8 1.2-1.8 1.2-3s-.4-2.2-1.2-3c-.7-.8-1.8-1.3-3-1.3z" fill="#e9ebed"/><path d="m72 0h36v36h-36z" fill="none"/><path d="m90 19.5c-.8 0-1.5-.7-1.5-1.5s.7-1.5 1.5-1.5 1.5.7 1.5 1.5-.7 1.5-1.5 1.5zm0-2c-.3 0-.5.2-.5.5s.2.5.5.5.5-.2.5-.5-.2-.5-.5-.5z" fill="#12b5af"/><g fill="#5320c4"><path d="m94.3 17.9c-.1-.1-.3-.2-.4-.2-.3 0-.6.2-.6.6 0 .3.2.6.5.6h.1c.1 0 .3-.1.4-.1.1-.1.2-.3.2-.4s-.1-.3-.2-.5z"/><path d="m92.9 20.6c-.2-.2-.6-.3-.8 0-.2.2-.3.6-.1.8.1.1.2.2.4.2h.1c.2 0 .3-.1.4-.1.1-.1.2-.3.2-.4 0-.2-.1-.4-.2-.5z"/><path d="m89.6 21.3c-.3 0-.6.2-.6.5 0 .2 0 .3.1.5.1.1.3.2.4.2.2 0 .3-.1.4-.2s.2-.3.2-.4c.1-.3-.1-.6-.5-.6z"/><path d="m87.4 20.1c-.2-.2-.6-.3-.8-.1-.1.1-.2.2-.2.4s0 .3.1.5c.1.1.3.2.4.2.2 0 .3-.1.4-.2.3-.2.3-.6.1-.8z"/><path d="m86.2 17c-.2 0-.3 0-.5.1-.1.1-.2.3-.2.4 0 .2.1.4.2.5s.2.2.4.2c.3 0 .6-.2.6-.6 0-.3-.2-.5-.5-.6z"/><path d="m88 14.6c-.1-.1-.2-.2-.4-.2s-.3 0-.5.1c-.1.1-.2.3-.2.4 0 .2.1.3.2.4s.3.2.4.2c.2 0 .3-.1.4-.1.2-.2.3-.5.1-.8z"/><path d="m90.8 13.7c-.1-.1-.3-.2-.4-.2-.2 0-.4.1-.5.2s-.2.2-.2.4c0 .3.2.6.6.6.3 0 .6-.2.6-.5.1-.2.1-.4-.1-.5z"/><path d="m93.5 15.1c-.1-.1-.3-.2-.4-.2-.2 0-.3.1-.4.2-.2.2-.3.6 0 .8.1.2.3.2.4.2s.2 0 .4-.1c.1-.1.2-.2.2-.4-.1-.2-.1-.3-.2-.5z"/></g><path d="m108 0h36v36h-36z" fill="none"/><path d="m126 21.5c-1.9 0-3.5-1.6-3.5-3.5s1.6-3.5 3.5-3.5 3.5 1.6 3.5 3.5-1.6 3.5-3.5 3.5zm0-6c-1.4 0-2.5 1.1-2.5 2.5s1.1 2.5 2.5 2.5 2.5-1.1 2.5-2.5-1.1-2.5-2.5-2.5z" fill="#12b5af"/><path d="m131.4 18c-.1-.2-.3-.2-.5-.2-.4 0-.7.3-.8.7 0 .4.2.7.6.8h.1c.1 0 .3-.1.4-.1.2-.1.3-.3.3-.5.1-.3 0-.5-.1-.7z" fill="#6322bf"/><path d="m129.6 21.3c-.3-.3-.7-.3-1-.1s-.4.7-.1 1c.1.2.3.3.5.3h.1c.2 0 .4-.1.5-.2.2-.1.3-.3.3-.5-.1-.2-.1-.4-.3-.5z" fill="#6322bf"/><path d="m125.6 22c-.4 0-.7.2-.8.6 0 .2 0 .4.1.6s.3.3.5.3c.2 0 .4-.1.5-.2.2-.1.2-.3.2-.5.2-.4-.1-.7-.5-.8z" fill="#6322bf"/><path d="m122.9 20.5c-.2-.3-.7-.4-1-.1-.2.1-.3.3-.3.5s0 .4.2.6c.1.2.3.3.5.3.2 0 .4-.1.5-.2.3-.4.3-.8.1-1.1z" fill="#6322bf"/><path d="m121.4 16.7c-.2 0-.4 0-.6.1s-.3.3-.3.5.1.4.2.6.3.2.5.2c.4 0 .7-.3.8-.7.1-.3-.2-.6-.6-.7z" fill="#6322bf"/><path d="m123.7 13.8c-.1-.2-.3-.3-.5-.3s-.4 0-.6.2c-.2.1-.3.3-.3.5s.1.4.2.5c.1.2.3.2.5.2s.3-.1.5-.2c.4-.1.4-.5.2-.9z" fill="#6322bf"/><path d="m127.2 12.8c-.1-.2-.3-.3-.5-.3s-.4.1-.6.2c-.1.1-.2.3-.2.5 0 .4.3.7.7.8.4 0 .7-.2.8-.6 0-.2 0-.5-.2-.6z" fill="#6322bf"/><path d="m130.4 14.5c-.1-.2-.3-.3-.5-.3s-.4.1-.5.2c-.3.3-.3.7-.1 1 .1.2.4.3.5.3s.3 0 .4-.1c.2-.1.3-.3.3-.5.1-.2 0-.4-.1-.6z" fill="#6322bf"/><path d="m144 0h36v36h-36z" fill="none"/><path d="m162 23.5c-3 0-5.5-2.5-5.5-5.5s2.5-5.5 5.5-5.5 5.5 2.5 5.5 5.5-2.5 5.5-5.5 5.5zm0-10c-2.5 0-4.5 2-4.5 4.5s2 4.5 4.5 4.5 4.5-2 4.5-4.5c0-2.4-2-4.5-4.5-4.5z" fill="#12b5af"/><path d="m168.3 18.2c-.2-.2-.4-.3-.6-.3-.5 0-.9.3-.9.8 0 .4.3.8.7 1h.1c.2 0 .4-.1.5-.1.2-.2.3-.4.3-.6.1-.4 0-.8-.1-.8z" fill="#8f24bc"/><path d="m166.1 21.9c-.3-.4-.9-.4-1.2-.1-.4.3-.4.8-.2 1.2.1.2.3.3.6.4h.1c.2 0 .4-.1.6-.2.2-.2.3-.4.3-.6.1-.4 0-.5-.2-.7z" fill="#8f24bc"/><path d="m161.4 22.8c-.4 0-.8.3-1 .7-.1.2 0 .5.1.7.2.2.4.3.6.3.2 0 .5-.1.6-.2.2-.2.3-.4.3-.6.2-.5-.2-.9-.6-.9z" fill="#8f24bc"/><path d="m158.2 20.9c-.3-.4-.8-.4-1.2-.2-.2.1-.3.3-.4.6s0 .5.2.7.4.3.6.3c.2 0 .4-.1.6-.2.4-.3.5-.9.2-1.2z" fill="#8f24bc"/><path d="m156.5 16.4c-.2-.1-.5 0-.7.1-.2.2-.3.4-.3.6 0 .3.1.5.2.7.2.2.3.3.6.3.5 0 .9-.3.9-.8.1-.4-.2-.8-.7-.9z" fill="#8f24bc"/><path d="m159.3 13c-.1-.2-.3-.3-.6-.4s-.5 0-.7.2-.3.4-.3.6.1.4.2.6c.2.2.4.3.6.3s.4-.1.6-.2c.4-.2.4-.7.2-1.1z" fill="#8f24bc"/><path d="m163.5 11.9c-.2-.2-.4-.3-.6-.3-.3 0-.5.1-.7.2-.1.1-.2.3-.2.6 0 .5.3.9.8.9.4 0 .8-.3.9-.7-.1-.4-.1-.5-.2-.7z" fill="#8f24bc"/><path d="m167.2 14c-.2-.2-.4-.3-.6-.3s-.4.1-.6.2c-.4.3-.4.9-.1 1.2.2.2.4.3.6.3s.4 0 .5-.1c.2-.1.3-.3.4-.6 0-.2-.1-.6-.2-.7z" fill="#8f24bc"/><path d="m180 0h36v36h-36z" fill="none"/><path d="m198 25.5c-4.1 0-7.5-3.4-7.5-7.5s3.4-7.5 7.5-7.5 7.5 3.4 7.5 7.5-3.4 7.5-7.5 7.5zm0-14c-3.6 0-6.5 2.9-6.5 6.5s2.9 6.5 6.5 6.5 6.5-2.9 6.5-6.5-2.9-6.5-6.5-6.5z" fill="#12b5af" opacity=".95"/><path d="m205.2 18.2c-.2-.2-.4-.3-.7-.4-.6 0-1 .3-1.1.9 0 .5.3 1 .8 1.1h.2c.2 0 .5-.1.6-.2.2-.2.4-.4.4-.7.1-.1 0-.4-.2-.7z" fill="#e643f7"/><path d="m202.7 22.6c-.4-.4-1-.5-1.4-.1-.4.3-.5.9-.2 1.3.1.2.4.4.7.5h.1c.3 0 .5-.1.7-.2.2-.2.4-.4.4-.7-.1-.4-.1-.6-.3-.8z" fill="#e643f7"/><path d="m197.2 23.5c-.5 0-1 .3-1.1.8-.1.2 0 .6.1.8.2.2.4.4.7.4h.1c.3 0 .6-.1.7-.3.2-.2.3-.4.4-.7 0-.5-.4-1-.9-1z" fill="#e643f7"/><path d="m193.5 21.2c-.3-.4-.9-.5-1.3-.2-.2.1-.4.4-.5.7s0 .6.2.8.4.4.7.4c.3 0 .5-.1.7-.3.5-.4.6-.9.2-1.4z" fill="#e643f7"/><path d="m191.7 16c-.2-.1-.6 0-.8.1-.2.2-.4.4-.4.7s.1.6.2.8c.2.2.4.3.7.4.6 0 1-.3 1.1-.9.1-.5-.2-.9-.8-1.1z" fill="#e643f7"/><path d="m195 12.2c-.1-.2-.4-.4-.7-.5s-.6 0-.8.2-.4.4-.4.7.1.5.3.7.4.3.7.4c.3 0 .5-.1.7-.2.4-.3.4-.8.2-1.3z" fill="#e643f7"/><path d="m199.8 11c-.2-.2-.4-.4-.7-.4s-.6.1-.8.2-.3.4-.3.6c0 .6.3 1 .9 1.1h.1c.5 0 1-.3 1.1-.8-.1-.2-.1-.5-.3-.7z" fill="#e643f7"/><path d="m204.1 13.5c-.2-.2-.4-.4-.7-.4s-.5.1-.7.3c-.4.4-.5 1-.1 1.4.2.3.5.4.7.4s.4 0 .6-.2c.2-.1.4-.4.5-.7-.1-.2-.2-.6-.3-.8z" fill="#e643f7"/><path d="m216 0h36v36h-36z" fill="none"/><path d="m234 27.5c-5.2 0-9.5-4.3-9.5-9.5s4.3-9.5 9.5-9.5 9.5 4.3 9.5 9.5-4.3 9.5-9.5 9.5zm0-18c-4.7 0-8.5 3.8-8.5 8.5s3.8 8.5 8.5 8.5 8.5-3.8 8.5-8.5-3.8-8.5-8.5-8.5z" fill="#12b5af" opacity=".9"/><path d="m242.2 18.5c-.2-.2-.5-.4-.8-.4-.6-.1-1.2.4-1.2 1s.3 1.1.9 1.3h.2c.2 0 .5-.1.7-.2.2-.2.4-.5.5-.8 0-.4-.1-.7-.3-.9z" fill="#f743f3"/><path d="m239.2 23.2c-.4-.5-1.1-.6-1.6-.2s-.6 1-.3 1.5c.2.2.4.4.8.5h.1c.3 0 .6-.1.8-.2.2-.2.4-.5.5-.8 0-.2-.1-.5-.3-.8z" fill="#f743f3"/><path d="m232.9 24.2c-.6 0-1.1.3-1.3.9-.1.3 0 .6.2.9.2.2.5.4.8.5h.1c.3 0 .6-.1.8-.3s.4-.5.4-.8c.1-.6-.3-1.2-1-1.2z" fill="#f743f3"/><path d="m228.9 21.5c-.4-.5-1-.6-1.5-.3-.2.2-.4.4-.5.8-.1.3 0 .6.2.9.2.2.5.4.8.5.3 0 .6-.1.8-.3.5-.3.5-1.1.2-1.6z" fill="#f743f3"/><path d="m226.9 15.6c-.3-.1-.6 0-.9.2-.2.2-.4.5-.5.8 0 .3.1.7.3.9s.4.4.8.4c.6.1 1.2-.4 1.2-1 .1-.7-.3-1.1-.9-1.3z" fill="#f743f3"/><path d="m230.7 11.3c-.2-.2-.4-.4-.8-.5s-.6 0-.9.2c-.2.2-.4.5-.5.8 0 .3.1.6.3.8s.5.4.8.4.5-.1.8-.2c.5-.4.6-1 .3-1.5z" fill="#f743f3"/><path d="m236.2 10.1c-.2-.2-.5-.4-.8-.5-.3 0-.7.1-.9.3s-.3.4-.3.7c-.1.6.4 1.2 1 1.2h.1c.6 0 1.1-.3 1.2-.9-.1-.3-.1-.7-.3-.8z" fill="#f743f3"/><path d="m241 12.9c-.2-.2-.5-.4-.8-.5-.3 0-.6.1-.8.3-.5.4-.6 1.1-.2 1.6.2.3.5.4.8.5.2 0 .5 0 .7-.2s.4-.4.5-.8c0-.2 0-.6-.2-.9z" fill="#f743f3"/><path d="m252 0h36v36h-36z" fill="none"/><path d="m270 29.5c-6.3 0-11.5-5.2-11.5-11.5s5.2-11.5 11.5-11.5 11.5 5.2 11.5 11.5-5.2 11.5-11.5 11.5zm0-22c-5.8 0-10.5 4.7-10.5 10.5s4.7 10.5 10.5 10.5 10.5-4.7 10.5-10.5-4.7-10.5-10.5-10.5z" fill="#12b5af" opacity=".8"/><g fill="#f743b2" opacity=".9"><path d="m278.2 18.6c-.2-.3-.5-.4-.8-.4-.6-.1-1.2.3-1.2 1-.1.6.3 1.1.8 1.3h.2c.2 0 .5-.1.7-.2.3-.2.5-.5.5-.8.1-.3 0-.6-.2-.9z"/><path d="m275.1 23.4c-.4-.5-1.1-.6-1.6-.2-.5.3-.6 1-.3 1.5.1.2.4.4.7.5h.1c.3 0 .6-.1.8-.2.3-.2.5-.5.5-.8.1-.3 0-.6-.2-.8z"/><path d="m268.8 24.2c-.6-.1-1.1.3-1.3.8-.1.3 0 .6.1.9.2.3.5.5.8.5h.1c.3 0 .6 0 .8-.3.3-.2.4-.5.4-.8.2-.5-.2-1.1-.9-1.1z"/><path d="m264.8 21.5c-.3-.5-1-.6-1.5-.3-.2.1-.4.4-.5.7s0 .6.2.9.5.5.8.5c.3 0 .6-.1.8-.3.5-.3.6-1 .2-1.5z"/><path d="m263 15.5c-.3-.1-.6 0-.9.1-.3.2-.5.5-.5.8s0 .7.2.9.4.4.8.4c.6.1 1.2-.3 1.2-1 .1-.5-.2-1-.8-1.2z"/><path d="m266.8 11.3c-.1-.2-.4-.4-.7-.5s-.6 0-.9.2-.5.5-.5.8.1.6.3.8.5.4.8.4.5-.1.8-.2c.4-.3.5-1 .2-1.5z"/><path d="m272.3 10.1c-.2-.3-.5-.5-.8-.5s-.7 0-.9.2-.3.4-.4.7c-.1.6.3 1.2 1 1.2h.1c.6.1 1.1-.3 1.2-.8 0-.2 0-.5-.2-.8z"/><path d="m277 13.1c-.2-.3-.5-.5-.8-.5s-.6.1-.8.3c-.5.4-.6 1.1-.2 1.6.2.3.5.5.8.5.2 0 .5 0 .7-.2.2-.1.4-.4.5-.7s0-.7-.2-1z"/></g><path d="m288 0h36v36h-36z" fill="none"/><path d="m306 31.5c-7.4 0-13.5-6.1-13.5-13.5s6.1-13.5 13.5-13.5 13.5 6.1 13.5 13.5-6.1 13.5-13.5 13.5zm0-26c-6.9 0-12.5 5.6-12.5 12.5s5.6 12.5 12.5 12.5 12.5-5.6 12.5-12.5-5.6-12.5-12.5-12.5z" fill="#12b5af" opacity=".6"/><g fill="#f445df" opacity=".8"><path d="m315.1 18.9c-.2-.3-.5-.4-.8-.5-.7-.1-1.3.4-1.4 1s.3 1.3.9 1.5h.2c.3 0 .6-.1.8-.2.3-.2.5-.5.6-.9 0-.3-.1-.7-.3-.9z"/><path d="m311.6 24.1c-.4-.6-1.2-.7-1.8-.3s-.7 1.1-.4 1.7c.2.3.5.5.8.6h.1c.3 0 .6 0 .9-.2s.5-.5.6-.9 0-.6-.2-.9z"/><path d="m304.6 24.9c-.6-.1-1.3.3-1.5.9-.1.3 0 .7.1 1 .2.3.5.5.9.6h.1c.3 0 .7 0 .9-.3.3-.2.4-.5.5-.8.1-.8-.3-1.3-1-1.4z"/><path d="m300.1 21.9c-.4-.6-1.1-.7-1.7-.4-.3.2-.5.5-.6.8-.1.4 0 .7.2 1.1.2.3.5.5.9.6.3 0 .6 0 .9-.3.6-.6.7-1.3.3-1.8z"/><path d="m298.2 15.1c-.3-.1-.7 0-1 .1-.3.2-.5.5-.6.9 0 .4 0 .8.3 1.1.2.3.5.4.8.5.7.1 1.3-.4 1.4-1 .2-.8-.2-1.3-.9-1.6z"/><path d="m302.6 10.4c-.2-.3-.5-.5-.8-.6s-.7 0-1.1.2c-.3.2-.5.5-.6.9 0 .3 0 .6.3.9.2.3.5.4.9.5.3 0 .6-.1.9-.2.5-.3.7-1 .4-1.7z"/><path d="m308.7 9.2c-.2-.3-.5-.5-.9-.6-.4 0-.8 0-1.1.3-.2.2-.4.5-.4.8-.1.7.4 1.3 1 1.4h.1c.6.1 1.3-.3 1.4-.9.2-.3.2-.6-.1-1z"/><path d="m314 12.6c-.2-.3-.5-.5-.9-.6-.3 0-.6 0-.9.3-.6.4-.7 1.2-.3 1.8.2.3.6.5.9.6.3 0 .5 0 .8-.2s.5-.5.6-.8 0-.6-.2-1.1z"/></g><path d="m324 0h36v36h-36z" fill="none"/><path d="m342 33.5c-8.5 0-15.5-7-15.5-15.5s7-15.5 15.5-15.5 15.5 7 15.5 15.5-7 15.5-15.5 15.5zm0-30c-8 0-14.5 6.5-14.5 14.5s6.5 14.5 14.5 14.5 14.5-6.5 14.5-14.5-6.5-14.5-14.5-14.5z" fill="#12b5af" opacity=".4"/><path d="m342.7 16.8c-.2 0-.4.1-.6.2h-.1c-.2-.2-.4-.2-.6-.2s-.4.1-.6.2-.2.4-.2.6.1.4.2.6l1.1 1.1h.1.1l1.1-1.1c.2-.2.2-.4.2-.6s-.1-.4-.2-.6-.3-.2-.5-.2z" fill="#ee3633"/><g fill="#f74384" opacity=".7"><path d="m352.1 19.2c-.2-.3-.6-.5-.9-.6-.8-.1-1.5.4-1.6 1.1s.3 1.4 1 1.6h.2c.3 0 .6-.1.9-.2.3-.2.6-.6.6-1 .1-.2 0-.6-.2-.9z"/><path d="m348.1 24.9c-.5-.6-1.3-.8-1.9-.3-.6.4-.8 1.2-.5 1.9.2.3.5.6.9.7h.1c.3 0 .7 0 1-.2s.6-.6.6-1c.1-.4 0-.8-.2-1.1z"/><path d="m340.3 25.6c-.7-.1-1.4.3-1.6 1-.1.3 0 .8.1 1.1.2.3.6.6 1 .6h.1c.3 0 .8 0 1-.3.3-.2.5-.6.6-.9 0-.7-.4-1.4-1.2-1.5z"/><path d="m335.4 22.2c-.4-.6-1.2-.8-1.9-.5-.3.2-.6.5-.7.9s0 .8.2 1.2c.2.3.6.6 1 .6.3 0 .7 0 1-.3.7-.5.8-1.3.4-1.9z"/><path d="m333.4 14.7c-.3-.1-.8 0-1.1.1-.3.2-.6.6-.6 1-.1.4 0 .9.3 1.2.2.3.5.5.9.6.8.1 1.5-.4 1.6-1.1.1-.9-.3-1.5-1.1-1.8z"/><path d="m338.3 9.6c-.2-.3-.5-.6-.9-.7s-.8 0-1.2.2c-.3.2-.6.6-.6 1 0 .3 0 .7.3 1 .2.3.6.5 1 .6.3 0 .6-.1 1-.2.6-.4.8-1.2.4-1.9z"/><path d="m345.2 8.4c-.2-.3-.6-.6-1-.6-.4-.1-.9 0-1.2.3-.2.2-.4.5-.5.9-.1.8.4 1.5 1.1 1.6h.1c.7.1 1.4-.3 1.6-1 .1-.5.1-.9-.1-1.2z"/><path d="m350.9 12.3c-.2-.3-.6-.6-1-.6-.3 0-.7 0-1 .3-.6.5-.8 1.3-.3 1.9.2.4.6.6 1 .6.3 0 .6 0 .9-.2s.6-.5.7-.9c0-.2-.1-.7-.3-1.1z"/></g><path d="m360 0h36v36h-36z" fill="none"/><path d="m378 35.5c-9.6 0-17.5-7.9-17.5-17.5s7.9-17.5 17.5-17.5 17.5 7.9 17.5 17.5-7.9 17.5-17.5 17.5zm0-34c-9.1 0-16.5 7.4-16.5 16.5s7.4 16.5 16.5 16.5 16.5-7.4 16.5-16.5-7.4-16.5-16.5-16.5z" fill="#12b5af" opacity=".2"/><path d="m379.1 15.8c-.4 0-.7.1-1 .4l-.1.1-.1-.1c-.3-.3-.6-.4-1-.4s-.7.1-1 .4-.4.6-.4 1 .1.7.4 1l1.9 1.9c.1.1.1.1.2.1s.2 0 .2-.1l1.9-1.9c.3-.3.4-.6.4-1s-.1-.7-.4-1c-.2-.2-.6-.4-1-.4z" fill="#ee3633"/><g fill="#f24646" opacity=".6"><path d="m389 19.5c-.3-.4-.6-.6-1-.6-.8-.1-1.6.4-1.8 1.2-.1.8.3 1.5 1 1.8h.2c.3 0 .7 0 1-.2.4-.3.6-.6.7-1.1.2-.3.2-.8-.1-1.1z"/><path d="m384.5 25.7c-.5-.7-1.4-.9-2.1-.4-.7.4-.9 1.3-.6 2 .2.3.5.6 1 .8h.2c.4.1.8 0 1.1-.2.4-.3.6-.6.7-1.1.1-.4 0-.8-.3-1.1z"/><path d="m376 26.3c-.8-.1-1.5.3-1.8 1-.1.4-.1.8.1 1.2.3.4.6.6 1.1.7h.1c.4.1.9 0 1.1-.3.4-.3.6-.6.6-1 .1-.7-.4-1.4-1.2-1.6z"/><path d="m370.7 22.4c-.4-.7-1.3-.9-2-.6-.3.2-.6.5-.8 1-.1.4-.1.8.2 1.3.3.4.6.6 1.1.7.4.1.8 0 1.1-.3.7-.4.9-1.4.4-2.1z"/><path d="m368.7 14.2c-.4-.1-.8-.1-1.2.1-.4.3-.6.6-.7 1.1s0 .9.3 1.3.5.6 1 .6c.8.1 1.6-.4 1.8-1.2 0-.9-.4-1.6-1.2-1.9z"/><path d="m374.2 8.8c-.2-.3-.5-.6-1-.8-.4-.1-.8-.1-1.3.2-.4.3-.6.6-.7 1.1-.1.4 0 .8.3 1.1s.6.6 1.1.6c.4.1.7 0 1.1-.2.6-.4.8-1.3.5-2z"/><path d="m381.7 7.5c-.3-.4-.6-.6-1.1-.7s-.9 0-1.3.3c-.3.2-.5.5-.5.9-.1.8.4 1.6 1.2 1.8h.1c.8.1 1.5-.3 1.7-1.1.1-.3.1-.8-.1-1.2z"/><path d="m387.9 12c-.3-.4-.6-.6-1.1-.7-.4-.1-.8 0-1.1.3-.7.5-.9 1.4-.4 2.1.2.4.7.7 1.1.7.3 0 .6 0 1-.2.3-.2.6-.5.8-1 0-.3-.1-.8-.3-1.2z"/></g><path d="m396 0h36v36h-36z" fill="none"/><path d="m415.6 14.9c-.5 0-1 .2-1.4.6l-.1.2-.2-.2c-.4-.4-.9-.6-1.4-.6s-1 .2-1.4.6-.6.9-.6 1.4.2 1 .6 1.4l2.6 2.6c.1.1.2.1.3.1s.2 0 .3-.1l2.6-2.6c.4-.4.6-.9.6-1.4s-.2-1-.6-1.4c-.3-.4-.8-.6-1.3-.6z" fill="#ee3633"/><g fill="#ef5848" opacity=".5"><path d="m425.9 19.8c-.3-.4-.7-.6-1.1-.7-.9-.2-1.8.4-1.9 1.3-.1.8.3 1.7 1.1 2h.2c.3.1.8 0 1-.2.4-.3.7-.6.8-1.1.3-.5.2-1-.1-1.3z"/><path d="m420.9 26.5c-.5-.8-1.5-1-2.3-.5s-1 1.4-.6 2.2c.2.4.6.7 1 .9h.2c.4.1.9 0 1.2-.2.4-.3.7-.6.8-1.1s0-1-.3-1.3z"/><path d="m411.6 27c-.8-.1-1.7.3-2 1.1-.2.4-.1.9.1 1.3.3.4.6.7 1.1.8h.1c.4.1.9 0 1.2-.3.4-.3.6-.7.7-1.1.3-.8-.2-1.7-1.2-1.8z"/><path d="m406 22.6c-.5-.8-1.4-1-2.2-.6-.4.2-.7.6-.9 1-.2.5-.1.9.2 1.4.3.4.6.7 1.1.8.4.1.9 0 1.2-.3.9-.5 1.1-1.5.6-2.3z"/><path d="m403.9 13.7c-.4-.2-.9-.1-1.3.1-.4.3-.7.6-.8 1.1s0 1 .3 1.4.6.6 1.1.7c.9.2 1.8-.4 1.9-1.3.2-.9-.3-1.7-1.2-2z"/><path d="m410 7.9c-.2-.4-.6-.7-1-.9s-.9-.1-1.4.2c-.4.3-.7.6-.8 1.1-.1.4 0 .9.3 1.2s.7.6 1.2.7c.4.1.8 0 1.1-.2.7-.4 1-1.3.6-2.1z"/><path d="m418.2 6.7c-.3-.4-.6-.7-1.1-.8s-1 0-1.4.3c-.3.2-.5.6-.6 1-.2.9.4 1.8 1.3 1.9h.1c.8.1 1.7-.3 1.9-1.1.1-.4.1-.9-.2-1.3z"/><path d="m424.8 11.6c-.3-.4-.6-.7-1.1-.8-.4-.1-.9 0-1.2.3-.8.5-1 1.5-.5 2.3.3.5.7.7 1.1.8.3.1.7 0 1-.2.4-.2.7-.6.9-1s.1-.9-.2-1.4z"/></g><path d="m468 0h36v36h-36z" fill="none"/><path d="m488.4 13.1c-.9 0-1.6.3-2.2.9l-.2.2-.2-.2c-.6-.6-1.3-.9-2.2-.9s-1.6.3-2.2.9-.9 1.3-.9 2.2.3 1.6.9 2.2l4.1 4.2c.1.1.3.2.5.2s.4-.1.5-.2l4.1-4.2c.6-.6.9-1.3.9-2.2s-.3-1.6-.9-2.2c-.5-.5-1.3-.9-2.2-.9z" fill="#ee3633"/><g fill="#ed804a" opacity=".3"><path d="m500.7 20.7c-.3-.5-.8-.8-1.3-.9-1.1-.2-2.2.4-2.4 1.5-.2 1 .3 2.1 1.3 2.5.1 0 .2 0 .3.1.4.1 1 0 1.3-.1.5-.3.9-.8 1-1.4.2-.6.1-1.2-.2-1.7z"/><path d="m494.2 28.8c-.6-1-1.9-1.2-2.8-.7-1 .5-1.3 1.7-.9 2.7.2.5.7.9 1.3 1.1h.2c.5.1 1.1 0 1.5-.2.5-.3.9-.8 1-1.4.2-.6.1-1.1-.3-1.5z"/><path d="m482.7 29c-1-.2-2.1.3-2.5 1.3-.2.5-.1 1.1.1 1.6.3.5.8.9 1.4 1h.1c.5.1 1.2 0 1.6-.3.5-.3.8-.8.9-1.3.1-1-.5-2.1-1.6-2.3z"/><path d="m475.9 23.4c-.5-1-1.7-1.3-2.7-.9-.5.2-.9.7-1.1 1.3s-.1 1.1.2 1.7c.3.5.8.9 1.4 1 .5.1 1.1 0 1.6-.3.9-.6 1.2-1.8.6-2.8z"/><path d="m473.7 12.2c-.5-.2-1.1-.1-1.6.1-.5.3-.9.8-1 1.4s-.1 1.3.3 1.8.7.8 1.3.9c1.1.2 2.2-.4 2.4-1.5.2-1.3-.3-2.3-1.4-2.7z"/><path d="m481.5 5.2c-.2-.5-.7-.9-1.3-1.1s-1.1-.1-1.7.2c-.5.3-.9.8-1 1.4-.1.5 0 1.1.3 1.6s.8.8 1.4.9c.5.1 1 0 1.4-.2.9-.6 1.3-1.7.9-2.8z"/><path d="m491.7 4.1c-.3-.5-.8-.9-1.4-1s-1.3-.1-1.8.3c-.4.2-.7.7-.8 1.2-.2 1.1.4 2.2 1.5 2.4h.1c1 .2 2.1-.3 2.4-1.3.3-.5.3-1.1 0-1.6z"/><path d="m499.7 10.5c-.3-.5-.8-.9-1.4-1-.5-.1-1.1 0-1.6.3-1 .6-1.2 1.9-.7 2.8.3.6.9.9 1.4 1 .4.1.8.1 1.3-.1s.9-.7 1.1-1.3c.3-.5.2-1.1-.1-1.7z"/></g><path d="m504 0h36v36h-36z" fill="none"/><path d="m524.9 12.3c-1 0-1.9.4-2.6 1.1l-.2.3-.3-.3c-.7-.7-1.6-1.1-2.6-1.1s-1.9.4-2.6 1.1-1.1 1.6-1.1 2.6.4 1.9 1.1 2.6l4.8 4.9c.1.1.4.2.6.2s.4-.1.6-.2l4.8-4.9c.7-.7 1.1-1.6 1.1-2.6s-.4-1.9-1.1-2.6c-.6-.7-1.5-1.1-2.5-1.1z" fill="#ee3633"/><g fill="#edb24a" opacity=".2"><path d="m537.6 21.2c-.3-.5-.8-.9-1.4-1-1.2-.3-2.4.4-2.6 1.6-.2 1.1.3 2.2 1.3 2.7.1 0 .2 0 .3.1.4.1 1 0 1.4-.1.5-.3 1-.8 1.1-1.4.3-.6.2-1.3-.1-1.9z"/><path d="m530.5 29.7c-.7-1.1-2-1.4-3-.8s-1.4 1.8-1 2.8c.2.5.7 1 1.3 1.2h.2c.5.1 1.1 0 1.6-.2.5-.3 1-.8 1.1-1.4.3-.6.2-1.2-.2-1.6z"/><path d="m518.3 29.7c-1.1-.2-2.2.3-2.7 1.3-.2.5-.2 1.2.1 1.7s.8 1 1.4 1.1h.1c.5.1 1.2.1 1.7-.3.5-.3.9-.8 1-1.4.2-.9-.4-2.1-1.6-2.4z"/><path d="m511.2 23.7c-.6-1-1.8-1.4-2.8-1-.5.2-1 .7-1.2 1.3-.3.6-.2 1.2.1 1.8.3.5.8 1 1.4 1.1.5.1 1.1 0 1.7-.3 1-.6 1.3-1.9.8-2.9z"/><path d="m509 11.7c-.5-.2-1.2-.2-1.7.1s-1 .8-1.1 1.4-.1 1.3.2 1.9.7.8 1.4 1c1.2.3 2.4-.4 2.6-1.6.3-1.3-.2-2.3-1.4-2.8z"/><path d="m517.4 4.4c-.2-.5-.7-1-1.3-1.2-.6-.3-1.2-.2-1.8.1-.5.3-1 .8-1.1 1.4-.1.5 0 1.1.3 1.7s.8.9 1.5 1c.5.1 1 0 1.5-.2 1-.5 1.3-1.6.9-2.8z"/><path d="m528.3 3.4c-.3-.5-.8-1-1.4-1.1s-1.3-.1-1.9.2c-.4.2-.7.7-.9 1.3-.3 1.2.4 2.4 1.6 2.6h.1c1.1.2 2.2-.3 2.6-1.3.2-.5.3-1.1-.1-1.7z"/><path d="m536.7 10.4c-.3-.5-.8-1-1.4-1.1-.5-.1-1.1 0-1.7.3-1.1.7-1.4 2-.8 3 .3.6.9 1 1.4 1.1.4.1.9.1 1.4-.1s1-.7 1.2-1.3c.3-.6.2-1.3-.1-1.9z"/></g><path d="m540 0h36v36h-36z" fill="none"/><path d="m561.2 11.4c-1.2 0-2.2.4-3 1.2l-.2.3-.3-.3c-.8-.8-1.8-1.2-3-1.2s-2.2.4-3 1.2-1.2 1.8-1.2 3 .4 2.2 1.2 3l5.6 5.7c.2.2.4.2.7.2s.5-.1.7-.2l5.6-5.7c.8-.8 1.2-1.8 1.2-3s-.4-2.2-1.2-3c-.8-.7-1.9-1.2-3.1-1.2z" fill="#ee3633"/><g fill="#edab4a" opacity=".1"><path d="m574.4 21.6c-.3-.6-.9-.9-1.4-1.1-1.3-.3-2.5.3-2.8 1.6-.3 1.1.3 2.4 1.3 2.9.1 0 .2.1.3.1.5.1 1.1 0 1.5-.1.6-.3 1.1-.8 1.2-1.5.3-.5.2-1.3-.1-1.9z"/><path d="m566.7 30.5c-.7-1.1-2.1-1.5-3.2-.9s-1.6 1.9-1.1 3c.2.5.7 1 1.4 1.3.1 0 .2.1.2.1.6.1 1.2.1 1.7-.2.6-.3 1.1-.8 1.2-1.5.3-.7.2-1.3-.2-1.8z"/><path d="m553.7 30.3c-1.1-.3-2.4.3-2.9 1.3-.3.5-.2 1.3 0 1.8.3.6.8 1.1 1.5 1.2h.1c.6.1 1.3.1 1.8-.3.6-.3.9-.9 1.1-1.4.3-1.1-.3-2.3-1.6-2.6z"/><path d="m546.3 23.7c-.6-1.1-1.9-1.6-3-1.1-.5.2-1 .7-1.3 1.4s-.2 1.3.1 2c.3.6.8 1.1 1.5 1.2.6.1 1.2.1 1.8-.3 1.1-.7 1.5-2.1.9-3.2z"/><path d="m544.3 11c-.5-.3-1.3-.2-1.8 0-.6.3-1.1.8-1.2 1.5s-.1 1.4.2 2 .7.9 1.4 1.1c1.3.3 2.5-.3 2.8-1.6.3-1.4-.2-2.5-1.4-3z"/><path d="m553.3 3.4c-.2-.5-.7-1-1.4-1.3s-1.3-.2-2 .1c-.6.3-1.1.8-1.2 1.5-.1.6-.1 1.2.3 1.8.3.6.9.9 1.5 1.1.6.1 1.1 0 1.6-.2 1.2-.5 1.6-1.8 1.2-3z"/><path d="m564.9 2.6c-.3-.6-.8-1.1-1.5-1.2s-1.4-.1-2 .2c-.4.3-.8.8-.9 1.3-.3 1.3.3 2.5 1.6 2.8h.1c1.1.3 2.4-.3 2.8-1.4.2-.4.2-1.2-.1-1.7z"/><path d="m573.6 10.1c-.3-.6-.8-1.1-1.5-1.2-.6-.1-1.2-.1-1.8.3-1.1.7-1.5 2.1-.9 3.2.3.7.9 1.1 1.5 1.2.5.1.9.1 1.5-.1.5-.2 1-.7 1.3-1.4.3-.6.3-1.3-.1-2z"/></g><path d="m36 0h36v36h-36z" fill="none"/><path d="m57.3 17.8c-.1-.1-.2-.1-.3-.1-.3 0-.5.2-.5.4s.2.4.4.5h.1s.2 0 .3-.1.2-.2.2-.4c.1-.1-.1-.1-.2-.3z" fill="#1e52c6"/><path d="m56.3 20c-.2-.2-.5-.2-.7 0s-.2.4-.1.6c.1.1.2.2.3.2.1 0 .2 0 .3-.1s.2-.2.2-.4c.1-.1.1-.3 0-.3z" fill="#1e52c6"/><path d="m53.8 20.5c-.2 0-.4.2-.5.4 0 .1 0 .3.1.4s.2.2.4.2c.1 0 .3 0 .3-.1.1-.1.1-.2.1-.3 0-.3-.1-.6-.4-.6z" fill="#1e52c6"/><path d="m52.1 19.7c-.2-.2-.4-.2-.6-.1-.1.1-.2.2-.2.3s0 .3.1.4.2.2.4.2c.1 0 .2 0 .3-.1.1-.4.1-.6 0-.7z" fill="#1e52c6"/><path d="m51.1 17.2c-.1 0-.3 0-.4.1s-.2.2-.2.4 0 .3.1.4.2.1.3.1c.3 0 .5-.2.5-.4 0-.3-.2-.6-.3-.6z" fill="#1e52c6"/><path d="m52.4 15.3c-.1-.1-.2-.2-.3-.2s-.3 0-.4.1-.2.2-.2.4c0 .1 0 .2.1.3s.2.1.4.1c.1 0 .2 0 .3-.1.3-.1.3-.3.1-.6z" fill="#1e52c6"/><path d="m54.7 14.6c-.1-.1-.2-.2-.4-.2s-.3 0-.4.1-.1.2-.1.3c0 .3.2.5.4.5.2 0 .4-.2.5-.4.1-.1.1-.1 0-.3z" fill="#1e52c6"/><path d="m56.7 15.6c-.1-.1-.2-.2-.4-.2-.1 0-.2 0-.3.1-.2.2-.2.5 0 .7.1.1.2.2.4.2.1 0 .2 0 .3-.1s.2-.2.2-.3c-.1-.1-.1-.2-.2-.4z" fill="#1e52c6"/><path d="m54 17.5c-.3 0-.5.2-.5.5s.2.5.5.5.5-.2.5-.5-.2-.5-.5-.5z" fill="#12b5af"/></svg>